<svg width="723" height="473" viewBox="0 0 723 473" fill="none" xmlns="http://www.w3.org/2000/svg">
<g clip-path="url(#clip0_73_81)">
<rect width="722.272" height="473" fill="url(#paint0_linear_73_81)"/>
<rect x="-797.713" y="120.542" width="1408.03" height="1037.87" rx="77.3793" fill="#161616" stroke="#2E2E2E" stroke-width="5.54626"/>
<path d="M176.891 225.996C172.446 230.44 165.24 230.44 160.795 225.996L126.349 191.549C119.18 184.379 124.257 172.121 134.396 172.121L203.29 172.121C213.429 172.121 218.506 184.379 211.337 191.549L176.891 225.996Z" fill="#FAC800" stroke="#EFAE00" stroke-width="7.58713"/>
<path d="M345.759 181.279L311.312 215.727C306.532 220.506 309.917 228.679 316.677 228.679H385.571C392.33 228.679 395.715 220.506 390.936 215.727L356.488 181.279C353.525 178.317 348.722 178.317 345.759 181.279Z" fill="#35C759" stroke="#00AC00" stroke-width="7.58713"/>
<mask id="path-4-outside-1_73_81" maskUnits="userSpaceOnUse" x="478.641" y="173.915" width="72" height="72" fill="black">
<rect fill="white" x="478.641" y="173.915" width="72" height="72"/>
<path fill-rule="evenodd" clip-rule="evenodd" d="M535.024 178.137C537.987 175.174 542.791 175.174 545.754 178.137C548.717 181.1 548.717 185.904 545.754 188.867L525.039 209.582L545.754 230.299C548.717 233.262 548.717 238.066 545.754 241.028C542.792 243.991 537.988 243.991 535.025 241.028L514.308 220.312L493.592 241.028C490.629 243.991 485.826 243.991 482.863 241.028C479.9 238.065 479.9 233.262 482.863 230.299L503.578 209.582L482.863 188.867C479.9 185.904 479.9 181.1 482.863 178.137C485.826 175.174 490.63 175.174 493.593 178.137L514.308 198.852L535.024 178.137Z"/>
</mask>
<path fill-rule="evenodd" clip-rule="evenodd" d="M535.024 178.137C537.987 175.174 542.791 175.174 545.754 178.137C548.717 181.1 548.717 185.904 545.754 188.867L525.039 209.582L545.754 230.299C548.717 233.262 548.717 238.066 545.754 241.028C542.792 243.991 537.988 243.991 535.025 241.028L514.308 220.312L493.592 241.028C490.629 243.991 485.826 243.991 482.863 241.028C479.9 238.065 479.9 233.262 482.863 230.299L503.578 209.582L482.863 188.867C479.9 185.904 479.9 181.1 482.863 178.137C485.826 175.174 490.63 175.174 493.593 178.137L514.308 198.852L535.024 178.137Z" fill="#F10019"/>
<path d="M535.024 178.137L536.365 179.478L536.365 179.478L535.024 178.137ZM545.754 178.137L547.096 176.796L547.096 176.796L545.754 178.137ZM545.754 188.867L547.096 190.208L547.096 190.208L545.754 188.867ZM525.039 209.582L523.697 208.241L522.356 209.582L523.697 210.923L525.039 209.582ZM545.754 230.299L547.096 228.958L547.096 228.958L545.754 230.299ZM545.754 241.028L547.096 242.37L547.096 242.37L545.754 241.028ZM535.025 241.028L533.684 242.37L533.684 242.37L535.025 241.028ZM514.308 220.312L515.649 218.97L514.308 217.629L512.967 218.97L514.308 220.312ZM493.592 241.028L494.934 242.37L494.934 242.37L493.592 241.028ZM482.863 241.028L481.522 242.37L481.522 242.37L482.863 241.028ZM482.863 230.299L484.204 231.64L484.204 231.64L482.863 230.299ZM503.578 209.582L504.919 210.923L506.26 209.582L504.919 208.241L503.578 209.582ZM482.863 178.137L481.522 176.796L481.522 176.796L482.863 178.137ZM514.308 198.852L512.967 200.193L514.308 201.534L515.649 200.193L514.308 198.852ZM535.024 178.137L536.365 179.478C538.587 177.256 542.191 177.256 544.413 179.478L545.754 178.137L547.096 176.796C543.392 173.092 537.386 173.092 533.683 176.796L535.024 178.137ZM545.754 178.137L544.413 179.478C546.635 181.7 546.635 185.304 544.413 187.526L545.754 188.867L547.096 190.208C550.799 186.505 550.799 180.499 547.096 176.796L545.754 178.137ZM545.754 188.867L544.413 187.526L523.697 208.241L525.039 209.582L526.38 210.923L547.096 190.208L545.754 188.867ZM525.039 209.582L523.697 210.923L544.413 231.64L545.754 230.299L547.096 228.958L526.38 208.241L525.039 209.582ZM545.754 230.299L544.413 231.64C546.635 233.862 546.635 237.465 544.413 239.687L545.754 241.028L547.096 242.37C550.799 238.666 550.799 232.661 547.096 228.958L545.754 230.299ZM545.754 241.028L544.413 239.687C542.191 241.909 538.588 241.909 536.366 239.687L535.025 241.028L533.684 242.37C537.387 246.073 543.392 246.073 547.096 242.37L545.754 241.028ZM535.025 241.028L536.366 239.687L515.649 218.97L514.308 220.312L512.967 221.653L533.684 242.37L535.025 241.028ZM514.308 220.312L512.967 218.97L492.251 239.687L493.592 241.028L494.934 242.37L515.649 221.653L514.308 220.312ZM493.592 241.028L492.251 239.687C490.029 241.909 486.426 241.909 484.204 239.687L482.863 241.028L481.522 242.37C485.225 246.073 491.23 246.073 494.934 242.37L493.592 241.028ZM482.863 241.028L484.204 239.687C481.982 237.465 481.982 233.862 484.204 231.64L482.863 230.299L481.522 228.958C477.818 232.661 477.818 238.666 481.522 242.37L482.863 241.028ZM482.863 230.299L484.204 231.64L504.919 210.923L503.578 209.582L502.236 208.241L481.522 228.958L482.863 230.299ZM503.578 209.582L504.919 208.241L484.204 187.526L482.863 188.867L481.522 190.208L502.236 210.923L503.578 209.582ZM482.863 188.867L484.204 187.526C481.982 185.304 481.982 181.7 484.204 179.478L482.863 178.137L481.522 176.796C477.818 180.499 477.818 186.505 481.522 190.208L482.863 188.867ZM482.863 178.137L484.204 179.478C486.426 177.256 490.03 177.256 492.252 179.478L493.593 178.137L494.935 176.796C491.231 173.092 485.225 173.092 481.522 176.796L482.863 178.137ZM493.593 178.137L492.252 179.478L512.967 200.193L514.308 198.852L515.649 197.51L494.935 176.796L493.593 178.137ZM514.308 198.852L515.649 200.193L536.365 179.478L535.024 178.137L533.683 176.796L512.967 197.51L514.308 198.852Z" fill="#F10019" mask="url(#path-4-outside-1_73_81)"/>
</g>
<defs>
<linearGradient id="paint0_linear_73_81" x1="361.136" y1="0" x2="361.136" y2="473" gradientUnits="userSpaceOnUse">
<stop stop-color="#474747"/>
<stop offset="1" stop-color="#2E2E2E"/>
</linearGradient>
<clipPath id="clip0_73_81">
<rect width="722.272" height="473" fill="white"/>
</clipPath>
</defs>
</svg>
